<?xml version="1.0" encoding="UTF-8"?>
<!DOCTYPE svg PUBLIC "-//W3C//DTD SVG 1.1//EN" "http://www.w3.org/Graphics/SVG/1.1/DTD/svg11.dtd">
<svg xmlns="http://www.w3.org/2000/svg" xmlns:xlink="http://www.w3.org/1999/xlink" width="500px" height="345px" viewBox="0 0 1000 690">
<path fill="#213682" d="M231.201 351.812l-115.552 0 0 -8.70827 34.2496 0 0 -216.143 -34.2496 0 0 -9.05906 115.201 0c31.0347,0 54.3544,5.31851 69.9615,16.0134 15.6071,10.6961 23.3799,26.7107 23.3799,48.2209 0,21.3343 -7.94883,37.115 -23.9067,47.3422 -15.8977,10.2295 -40.5626,15.3154 -73.8768,15.3154l-31.3299 0 0 98.3103 36.1229 0 0 8.70827zm-36.1229 -115.436l20.4 0c21.8587,0 37.1717,-4.20827 45.8233,-12.5658 8.70709,-8.41772 13.0347,-23.1449 13.0347,-44.3044 0,-19.6394 -3.5067,-33.2575 -10.4658,-40.9737 -6.95316,-7.71379 -20.2784,-11.5713 -40.0347,-11.5713l-28.7575 0 0 109.415zm273.803 43.8957l0 5.61024c0,22.2685 3.85748,37.8154 11.6303,46.6996 7.77402,8.82638 20.7508,13.2697 38.8666,13.2697 21.0414,0 36.9414,-5.26182 47.6977,-15.7819 10.8106,-10.4622 16.1882,-26.0103 16.1882,-46.5839l0 -156.875 -34.076 0 0 -8.70827 77.9138 0 0 8.70827 -34.076 0 0 156.875c0,24.8988 -6.7819,43.4859 -20.3977,55.7008 -13.5602,12.2173 -34.1941,18.2941 -61.956,18.2941 -28.9925,0 -50.7922,-5.78504 -65.4071,-17.2996 -14.6091,-11.5146 -21.9166,-28.6984 -21.9166,-51.5516l0 -162.019 -34.076 0 0 -8.70827 113.685 0 0 8.70827 -34.076 0 0 153.662zm416.999 73.2355l-6.4878 0 -14.0268 -15.3732c-9.81851,6.72284 -19.7551,11.6327 -29.8099,14.7295 -10.0512,3.09803 -21.098,4.61693 -33.078,4.61693 -29.8701,0 -54.7666,-11.5713 -74.6422,-34.7752 -19.8732,-23.1473 -29.8075,-52.2532 -29.8075,-87.3237 0,-35.7107 9.99331,-65.0516 29.9823,-88.0229 19.9914,-22.9701 45.5929,-34.4256 76.8603,-34.4256 11.8087,0 22.2709,1.46102 31.4469,4.38426 9.17481,2.86299 17.4177,7.30512 24.724,13.2662l13.0335 -13.3843 6.6626 0 0 67.3335 -8.88426 0c-4.67599,-20.9256 -12.7406,-36.5303 -24.137,-46.8756 -11.3988,-10.3453 -26.1284,-15.489 -44.191,-15.489 -19.9878,0 -34.4244,6.54567 -43.2508,19.6382 -8.82638,13.0347 -13.265,34.5425 -13.265,64.4693l0 57.8646c0,30.0414 4.38071,51.6685 13.2083,64.8189 8.76497,13.2083 23.0858,19.813 42.9567,19.813 19.6406,0 35.6563,-5.78623 48.104,-17.3008 12.4512,-11.5725 20.8654,-28.4044 25.1929,-50.5583l9.40867 0 0 72.5942z"/>
<polygon fill="#213682" points="885.581,507.859 114.119,507.859 114.119,392.842 885.581,392.842 "/>
<path fill="white" d="M210.049 416.02l-0.95315 11.361c-0.28937,-0.101575 -0.649607,-0.240945 -1.11614,-0.396851 -6.95434,-2.49803 -12.3957,-3.74055 -16.3051,-3.74055 -8.23347,0 -14.8122,2.44843 -19.7469,7.32756 -4.91811,4.88032 -7.38662,11.3811 -7.38662,19.4835 0,7.69016 2.54055,13.9134 7.62048,18.691 5.1,4.77638 11.7992,7.17284 20.1437,7.17284 2.79213,0 6.97205,-0.93189 12.5764,-2.77677 1.96181,-0.637796 3.43819,-1.08543 4.4315,-1.36181l1.26142 11.3622c-0.921261,0.240945 -2.27244,0.587008 -4.07481,1.0689 -6.78898,1.84606 -11.9445,2.77559 -15.4547,2.77559 -12.9201,0 -23.1189,-3.30945 -30.5764,-9.94843 -7.45985,-6.6378 -11.1874,-15.6201 -11.1874,-26.9835 0,-11.3445 3.74646,-20.5004 11.2252,-27.4488 7.47638,-6.94843 17.3858,-10.4315 29.7425,-10.4315 3.83859,0 9.02835,0.914174 15.5681,2.72362 1.94528,0.518504 3.35079,0.878741 4.23189,1.12205zm64.4941 9.68859l-12.5752 32.2784 24.6626 0 -12.0874 -32.2784zm-8.66575 -11.9658l17.8347 0 28.989 71.778 -15.9449 0 -6.23268 -16.9819 -32.6634 0 -6.50434 16.9819 -14.6669 0 29.1886 -71.778zm76.7965 0l22.4835 0 18.163 49.865c0.504331,1.44685 0.935434,3.17126 1.29449,5.18977 0.380315,2.01614 0.669686,4.24134 0.868111,6.67205 0.177165,-2.58544 0.432284,-4.88032 0.774804,-6.84567 0.322441,-1.96536 0.755906,-3.6378 1.29449,-5.01615l18.7937 -49.865 22.1599 0 0 71.778 -14.1425 0 0 -53.0859c0,-2.08701 0.0720473,-4.20827 0.232677,-6.36378 0.162992,-2.15551 0.39567,-4.29331 0.721654,-6.41457 -0.57756,2.2252 -1.11614,4.27678 -1.64173,6.15591 -0.519685,1.89685 -0.954331,3.31063 -1.26024,4.24252l-21.0059 55.4658 -13.2071 0 -20.537 -54.9154c-0.525591,-1.53425 -1.02992,-3.24095 -1.49882,-5.08701 -0.465355,-1.86024 -0.89882,-3.80906 -1.29449,-5.86182 0.361418,4.1374 0.576378,7.12087 0.683859,8.96694 0.106299,1.82717 0.179528,3.13701 0.217323,3.913l0 52.9843 -13.0996 0 0 -71.778zm140.723 10.1043l0 24.2421 6.07087 0c4.80945,0 8.5193,-1.03465 11.0799,-3.10276 2.57599,-2.06929 3.8563,-5.05276 3.8563,-8.91497 0,-3.91418 -1.22717,-6.91418 -3.67796,-9.03426 -2.43189,-2.12126 -5.90788,-3.19016 -10.4126,-3.19016l-6.91654 0zm-14.7744 -10.1043l22.2662 0c9.71221,0 16.9193,1.82717 21.5858,5.48268 4.68426,3.65551 7.02638,9.25985 7.02638,16.8461 0,7.0004 -2.45315,12.4488 -7.33465,16.311 -4.9004,3.87992 -11.8169,5.81103 -20.752,5.81103l-8.01733 0 0 27.3272 -14.7744 0 0 -71.778zm85.1918 0l14.7721 0 0 71.778 -14.7721 0 0 -71.778zm55.0524 0l18.5728 0 27.5469 50.1567c0.702756,1.38071 1.49882,3.19016 2.36103,5.41418 0.846851,2.2063 1.73032,4.75867 2.61378,7.62284 -0.612993,-3.39803 -1.06417,-6.50197 -1.35118,-9.2941 -0.307087,-2.79331 -0.45,-5.18977 -0.45,-7.17402l0 -46.7256 13.402 0 0 71.778 -18.3047 0 -28.3937 -51.3284c-0.737008,-1.27559 -1.47756,-2.94803 -2.21457,-5.03504 -0.737008,-2.10236 -1.49646,-4.55197 -2.23465,-7.37953 0.578741,4.20827 1.02638,7.81064 1.35354,10.8272 0.34252,3.01772 0.500788,5.13898 0.500788,6.34607l0 46.5697 -13.402 0 0 -71.778zm131.803 11.9658l-12.5776 32.2784 24.6638 0 -12.0862 -32.2784zm-8.66694 -11.9658l17.8358 0 28.9902 71.778 -15.9473 0 -6.2315 -16.9819 -32.6646 0 -6.50552 16.9819 -14.6634 0 29.1862 -71.778zm120.559 1.86378l-1.27795 11.276c-2.80984,-1.20827 -5.60315,-2.12126 -8.35867,-2.72599 -2.75788,-0.603544 -5.49804,-0.912993 -8.21812,-0.912993 -3.9626,0 -7.06064,0.7063 -9.27757,2.10354 -2.21693,1.39606 -3.33425,3.34488 -3.33425,5.87953 0,3.12047 4.02048,6.63898 12.0378,10.5012 0.772442,0.377953 1.36772,0.655512 1.80118,0.859843 7.49292,3.63898 12.5906,7.0878 15.3307,10.3287 2.72244,3.25866 4.08898,7.15749 4.08898,11.6894 0,6.63898 -2.62914,12.0697 -7.90867,16.278 -5.27953,4.20591 -12.215,6.31063 -20.8099,6.31063 -3.51378,0 -9.44056,-1.20591 -17.7815,-3.63898 -0.882284,-0.275197 -1.54961,-0.48189 -1.99961,-0.654331l1.3689 -12.2776c4.21772,1.98307 7.74686,3.39803 10.6134,4.24252 2.84528,0.84567 5.44016,1.25906 7.79883,1.25906 3.98386,0 7.20827,-0.878741 9.69331,-2.65512 2.46969,-1.75984 3.71221,-4.0004 3.71221,-6.69095 0,-3.49961 -4.01811,-7.3441 -12.0354,-11.5169 -0.559843,-0.292914 -0.990946,-0.517323 -1.2626,-0.655512 -0.323622,-0.172441 -0.827953,-0.414567 -1.53071,-0.758268 -5.94449,-3.03425 -10.1232,-5.79331 -12.5551,-8.27717 -1.7315,-1.75866 -3.04725,-3.74055 -3.92835,-5.96457 -0.901182,-2.2252 -1.35236,-4.58741 -1.35236,-7.07008 0,-6.10276 2.4874,-11.0173 7.47638,-14.7579 4.97481,-3.74292 11.6197,-5.60434 19.9642,-5.60434 3.24095,0 7.96064,0.827953 14.1425,2.48268 1.62165,0.431103 2.82756,0.759449 3.60237,0.949607z"/>
<path fill="#213682" d="M122.496 552.741l0 8.38583 2.01851 0c1.53425,0 2.69292,-0.340158 3.47126,-1.01221 0.779528,-0.679134 1.17284,-1.68425 1.17284,-3.00827 0,-1.43386 -0.393307,-2.52402 -1.17284,-3.25748 -0.778347,-0.741733 -1.92284,-1.10787 -3.42992,-1.10787l-2.05984 0zm-7.65001 -5.19922l10.252 0c4.01339,0 6.98032,0.747638 8.90316,2.2441 1.92284,1.49882 2.8878,3.8067 2.8878,6.9319 0,3.14055 -0.950788,5.53229 -2.84646,7.15985 -1.89331,1.62992 -4.65591,2.44843 -8.27363,2.44843l-3.27284 0 0 10.0713 -7.65001 0 0 -28.8555zm38.9977 4.89213c-1.97717,0 -3.56811,0.861024 -4.77638,2.57362 -1.20354,1.71024 -1.80236,3.99922 -1.80236,6.87402 0,2.88425 0.598819,5.18504 1.79764,6.90355 1.19882,1.71969 2.78858,2.57953 4.78111,2.57953 1.98425,0 3.56103,-0.859843 4.74804,-2.57244 1.18228,-1.7126 1.77756,-4.01339 1.77756,-6.91064 0,-2.86181 -0.595276,-5.14843 -1.78583,-6.86812 -1.19055,-1.71851 -2.77087,-2.57953 -4.73977,-2.57953zm0 -5.6067c4.45748,0 7.93465,1.33819 10.4516,4.01339 2.50866,2.6752 3.763,6.37678 3.763,11.1177 0,4.75512 -1.25433,8.45788 -3.763,11.1189 -2.51693,2.66103 -5.9941,3.99213 -10.4516,3.99213 -4.47874,0 -7.97835,-1.3311 -10.4929,-3.99213 -2.51575,-2.66103 -3.77481,-6.36378 -3.77481,-11.1189 0,-4.74095 1.25906,-8.44253 3.78071,-11.1177 2.52992,-2.6752 6.02126,-4.01339 10.487,-4.01339zm18.7134 0.714567l9.54804 0 8.30788 17.3008c0.282284,0.581103 0.612993,1.39252 0.992127,2.42599 0.380315,1.03937 0.793701,2.30669 1.25433,3.80433 -0.248032,-1.41969 -0.419292,-2.72362 -0.537402,-3.91536 -0.115748,-1.19291 -0.17126,-2.28071 -0.17126,-3.27284l0 -16.3429 6.90473 0 0 28.8555 -9.50788 0 -8.63505 -17.9315c-0.4063,-0.826772 -0.778347,-1.71969 -1.11614,-2.69055 -0.329528,-0.969686 -0.638977,-2.02323 -0.922442,-3.15945 0.26811,1.71851 0.466536,3.29764 0.592914,4.73977 0.12874,1.44213 0.19252,2.71772 0.19252,3.8126l0 15.2291 -6.90237 0 0 -28.8555zm29.5359 0l21.854 0 0 5.76615 -7.10434 0 0 23.0894 -7.64528 0 0 -23.0894 -7.10434 0 0 -5.76615zm25.1173 0l7.65001 0 0 28.8555 -7.65001 0 0 -28.8555zm13.1799 0l18.8953 0 0 5.48268 -11.2028 0 0 6.15473 10.7197 0 0 5.48268 -10.7197 0 0 11.7354 -7.69253 0 0 -28.8555zm23.0776 0l7.64528 0 0 28.8555 -7.64528 0 0 -28.8555zm4.22126 -10.5024l5.79331 0 -6.55749 7.53544 -3.1063 0 3.87048 -7.53544zm32.6575 11.3681l-0.661418 6.02953c-1.08307,-0.64252 -2.19095,-1.12913 -3.33425,-1.44685 -1.14449,-0.320079 -2.32323,-0.478347 -3.53504,-0.478347 -2.86536,0 -5.14607,0.837402 -6.84095,2.51575 -1.69488,1.68307 -2.54173,3.93544 -2.54173,6.77245 0,2.84055 0.859843,5.10709 2.58898,6.79253 1.7315,1.68307 4.03937,2.52992 6.91772,2.52992 1.12913,0 2.2878,-0.13937 3.45945,-0.415748 1.17638,-0.277559 2.36811,-0.694489 3.56811,-1.24961l0.461811 6.47481c-1.37244,0.381496 -2.74016,0.666142 -4.11969,0.851575 -1.37126,0.188977 -2.7567,0.285827 -4.1563,0.285827 -5.2063,0 -9.26576,-1.34646 -12.1736,-4.03465 -2.90788,-2.68229 -4.35827,-6.43229 -4.35827,-11.2347 0,-4.59685 1.42913,-8.23465 4.29685,-10.9311 2.86654,-2.69764 6.75945,-4.04174 11.6705,-4.04174 1.64055,0 3.19843,0.132284 4.67126,0.39567 1.47638,0.263386 2.83819,0.657875 4.08662,1.18465zm4.54134 -0.865749l7.64646 0 0 28.8555 -7.64646 0 0 -28.8555zm25.0512 6.43938l-3.71339 10.8189 7.3004 0 -3.58701 -10.8189zm-4.46457 -6.43938l9.2256 0 10.8567 28.8555 -8.16969 0 -2.04095 -6.11339 -11.0433 0 -2.1378 6.11339 -7.57087 0 10.8803 -28.8555zm33.8044 0l7.64528 0 0 16.7941c0,2.46732 0.366142,4.24252 1.09016,5.34449 0.732284,1.09488 1.89331,1.64173 3.49252,1.64173 1.63937,0 2.87953,-0.588189 3.71575,-1.76693 0.832678,-1.17874 1.25197,-2.91851 1.25197,-5.2193l0 -16.7941 7.29095 0 0 16.7941c0,4.24961 -1.02165,7.43741 -3.06024,9.55867 -2.03977,2.11417 -5.10473,3.17481 -9.18898,3.17481 -4.05237,0 -7.10434,-1.06654 -9.15709,-3.19488 -2.05394,-2.13543 -3.08032,-5.31615 -3.08032,-9.53859l0 -16.7941zm29.9292 0l9.54804 0 8.30788 17.3008c0.284646,0.581103 0.616536,1.39252 0.992127,2.42599 0.381496,1.03937 0.793701,2.30669 1.25433,3.80433 -0.248032,-1.41969 -0.416929,-2.72362 -0.537402,-3.91536 -0.115748,-1.19291 -0.17126,-2.28071 -0.17126,-3.27284l0 -16.3429 6.90237 0 0 28.8555 -9.5067 0 -8.6315 -17.9315c-0.408662,-0.826772 -0.780709,-1.71969 -1.11732,-2.69055 -0.329528,-0.969686 -0.640158,-2.02323 -0.923623,-3.15945 0.26811,1.71851 0.470079,3.29764 0.594095,4.73977 0.129921,1.44213 0.191339,2.71772 0.191339,3.8126l0 15.2291 -6.90237 0 0 -28.8555zm31.7882 0l7.64646 0 0 28.8555 -7.64646 0 0 -28.8555zm10.7823 0l7.99371 0 6.4004 22.4563 6.31654 -22.4563 7.83426 0 -9.72875 28.8555 -9.59174 0 -9.22442 -28.8555zm31.3831 0l19.9252 0 0 5.39882 -12.2787 0 0 5.82993 11.589 0 0 5.4815 -11.589 0 0 6.57875 12.7417 0 0 5.56654 -20.3882 0 0 -28.8555zm32.7414 5.07402l0 7.39489 2.68583 0c1.65236,0 2.89252,-0.297638 3.71929,-0.901182 0.827953,-0.602363 1.24016,-1.51063 1.24016,-2.71654 0,-1.29685 -0.459449,-2.25355 -1.38425,-2.86418 -0.915355,-0.608268 -2.37756,-0.912993 -4.36654,-0.912993l-1.89449 0zm-7.49056 -5.07402l11.4012 0c3.79725,0 6.61654,0.616536 8.44843,1.85669 1.84016,1.24134 2.75551,3.12638 2.75551,5.6563 0,1.87205 -0.480709,3.40394 -1.45158,4.60985 -0.972048,1.20591 -2.37284,2.01024 -4.19646,2.4189 1.5,0.553937 2.71299,2.12835 3.62953,4.72678l0 0.0212599 3.43111 9.56576 -7.97245 0 -2.52166 -7.90276c-0.405118,-1.26732 -0.955513,-2.14843 -1.65354,-2.64095 -0.702756,-0.484252 -1.79055,-0.72756 -3.27284,-0.72756l-1.10669 0 0 11.2713 -7.49056 0 0 -28.8555zm46.2225 0.318898l-0.565748 5.95394c-1.17047,-0.499607 -2.29252,-0.881103 -3.36614,-1.13032 -1.07599,-0.250394 -2.12362,-0.37441 -3.1311,-0.37441 -1.54725,0 -2.75551,0.249213 -3.62244,0.741733 -0.869292,0.49252 -1.30394,1.17165 -1.30394,2.0374 0,0.61063 0.223229,1.14449 0.670867,1.59449 0.441733,0.458268 1.10906,0.832678 1.99016,1.13032 0.297638,0.0956694 0.722835,0.227953 1.27559,0.408662 3.28583,1.06772 5.46378,2.01024 6.53977,2.82047 1.01221,0.784253 1.74921,1.68543 2.21693,2.68937 0.474804,1.01339 0.711024,2.19095 0.711024,3.54922 0,3.18189 -1.05,5.60788 -3.15118,7.27914 -2.10236,1.6689 -5.14016,2.50866 -9.12048,2.50866 -1.44213,0 -2.88898,-0.103937 -4.33465,-0.305906 -1.44449,-0.199606 -2.88071,-0.504331 -4.3063,-0.915355l0.649607 -6.43819c1.34291,0.61063 2.64921,1.07362 3.92008,1.3937 1.27323,0.318898 2.47205,0.477166 3.60118,0.477166 1.50827,0 2.70118,-0.283465 3.57638,-0.851575 0.874016,-0.569292 1.30866,-1.33701 1.30866,-2.31614 0,-1.20591 -1.39843,-2.2937 -4.1941,-3.27048 -0.670867,-0.229134 -1.19173,-0.416929 -1.55197,-0.546851 -2.73307,-0.992127 -4.68426,-2.13662 -5.85473,-3.44528 -1.17165,-1.30394 -1.75866,-2.9752 -1.75866,-5.00552 0,-2.89725 1.02638,-5.12244 3.08622,-6.6815 2.06339,-1.55906 5.01733,-2.33622 8.86182,-2.33622 1.41142,0 2.77441,0.0838583 4.07717,0.256299 1.31102,0.166536 2.56536,0.429922 3.77599,0.777166zm5.75315 -0.318898l7.64882 0 0 28.8555 -7.64882 0 0 -28.8555zm20.8701 5.56536l0 17.5016 3.30709 0c2.6941,0 4.7752,-0.762993 6.24331,-2.2937 1.46693,-1.53307 2.19567,-3.70158 2.19567,-6.51497 0,-2.79331 -0.766536,-4.93583 -2.2878,-6.44056 -1.52953,-1.50354 -3.71457,-2.25236 -6.5504,-2.25236l-2.90788 0zm-7.69016 -5.56536l10.0524 0c2.62559,0 4.82244,0.166536 6.58701,0.498426 1.77047,0.333071 3.21851,0.839764 4.33465,1.53189 2.08583,1.33819 3.65788,3.03662 4.72678,5.08819 1.05827,2.0504 1.58858,4.42796 1.58858,7.13977 0,2.97284 -0.557481,5.50276 -1.66772,7.58977 -1.10787,2.08583 -2.80276,3.79725 -5.07638,5.13426 -1.12913,0.651969 -2.57599,1.1315 -4.33819,1.42913 -1.75866,0.298819 -4.12796,0.444095 -7.10552,0.444095l-9.10158 0 0 -28.8555zm43.3796 6.43938l-3.71457 10.8189 7.30512 0 -3.59055 -10.8189zm-4.46457 -6.43938l9.22442 0 10.8567 28.8555 -8.16969 0 -2.03977 -6.11339 -11.0433 0 -2.13662 6.11339 -7.57323 0 10.8815 -28.8555zm29.4673 5.56536l0 17.5016 3.30473 0c2.69528,0 4.77756,-0.762993 6.24331,-2.2937 1.46575,-1.53307 2.19685,-3.70158 2.19685,-6.51497 0,-2.79331 -0.765355,-4.93583 -2.28543,-6.44056 -1.53071,-1.50354 -3.71339,-2.25236 -6.55158,-2.25236l-2.90788 0zm-7.69134 -5.56536l10.0536 0c2.62559,0 4.82244,0.166536 6.58701,0.498426 1.77047,0.333071 3.21733,0.839764 4.33465,1.53189 2.08583,1.33819 3.65551,3.03662 4.72678,5.08819 1.05827,2.0504 1.58858,4.42796 1.58858,7.13977 0,2.97284 -0.557481,5.50276 -1.66772,7.58977 -1.10669,2.08583 -2.80394,3.79725 -5.07638,5.13426 -1.1315,0.651969 -2.57835,1.1315 -4.34055,1.42913 -1.7563,0.298819 -4.12559,0.444095 -7.10316,0.444095l-9.10276 0 0 -28.8555zm31.5083 0l19.9252 0 0 5.39882 -12.2787 0 0 5.82993 11.5913 0 0 5.4815 -11.5913 0 0 6.57875 12.7406 0 0 5.56654 -20.387 0 0 -28.8555zm61.0548 0.865749l-0.661418 6.02953c-1.08307,-0.64252 -2.19331,-1.12913 -3.3378,-1.44685 -1.14213,-0.320079 -2.32087,-0.478347 -3.5315,-0.478347 -2.86536,0 -5.14961,0.837402 -6.84095,2.51575 -1.69488,1.68307 -2.5441,3.93544 -2.5441,6.77245 0,2.84055 0.861024,5.10709 2.59016,6.79253 1.72914,1.68307 4.03701,2.52992 6.9189,2.52992 1.12795,0 2.28543,-0.13937 3.45709,-0.415748 1.17756,-0.277559 2.36929,-0.694489 3.56811,-1.24961l0.464174 6.47481c-1.37362,0.381496 -2.74252,0.666142 -4.12087,0.851575 -1.37244,0.188977 -2.75788,0.285827 -4.15512,0.285827 -5.20985,0 -9.26812,-1.34646 -12.176,-4.03465 -2.90551,-2.68229 -4.35827,-6.43229 -4.35827,-11.2347 0,-4.59685 1.4315,-8.23465 4.29685,-10.9311 2.86772,-2.69764 6.75827,-4.04174 11.6717,-4.04174 1.64173,0 3.19725,0.132284 4.67244,0.39567 1.47284,0.263386 2.83819,0.657875 4.08662,1.18465zm16.4091 5.57363l-3.71339 10.8189 7.30276 0 -3.58937 -10.8189zm-4.46221 -6.43938l9.22442 0 10.8579 28.8555 -8.17205 0 -2.03858 -6.11339 -11.0457 0 -2.13425 6.11339 -7.57205 0 10.8803 -28.8555zm18.0508 0l21.8528 0 0 5.76615 -7.10197 0 0 23.0894 -7.65001 0 0 -23.0894 -7.10079 0 0 -5.76615zm38.3611 4.89213c-1.97717,0 -3.56929,0.861024 -4.7752,2.57362 -1.20473,1.71024 -1.80473,3.99922 -1.80473,6.87402 0,2.88425 0.6,5.18504 1.79882,6.90355 1.2,1.71969 2.78977,2.57953 4.78111,2.57953 1.98425,0 3.56103,-0.859843 4.74685,-2.57244 1.18347,-1.7126 1.77874,-4.01339 1.77874,-6.91064 0,-2.86181 -0.595276,-5.14843 -1.78583,-6.86812 -1.19173,-1.71851 -2.77087,-2.57953 -4.73977,-2.57953zm0 -5.6067c4.45748,0 7.93583,1.33819 10.4516,4.01339 2.50984,2.6752 3.76181,6.37678 3.76181,11.1177 0,4.75512 -1.25197,8.45788 -3.76181,11.1189 -2.51575,2.66103 -5.9941,3.99213 -10.4516,3.99213 -4.47992,0 -7.97835,-1.3311 -10.4917,-3.99213 -2.51457,-2.66103 -3.77599,-6.36378 -3.77599,-11.1189 0,-4.74095 1.26142,-8.44253 3.78071,-11.1177 2.52992,-2.6752 6.02126,-4.01339 10.487,-4.01339zm0.364961 -9.7878l5.79331 0 -6.55867 7.53544 -3.10748 0 3.87284 -7.53544zm18.3484 10.5024l7.64646 0 0 23.1508 11.5252 0 0 5.70473 -19.1717 0 0 -28.8555zm22.7693 0l7.64764 0 0 28.8555 -7.64764 0 0 -28.8555zm36.8811 0.865749l-0.662599 6.02953c-1.07835,-0.64252 -2.18858,-1.12913 -3.33307,-1.44685 -1.14449,-0.320079 -2.32087,-0.478347 -3.53622,-0.478347 -2.86536,0 -5.14489,0.837402 -6.83977,2.51575 -1.69606,1.68307 -2.5441,3.93544 -2.5441,6.77245 0,2.84055 0.863387,5.10709 2.5937,6.79253 1.72914,1.68307 4.03701,2.52992 6.91536,2.52992 1.13032,0 2.28662,-0.13937 3.46063,-0.415748 1.1752,-0.277559 2.36929,-0.694489 3.56811,-1.24961l0.459449 6.47481c-1.37008,0.381496 -2.74134,0.666142 -4.11851,0.851575 -1.37008,0.188977 -2.75551,0.285827 -4.1563,0.285827 -5.20748,0 -9.26457,-1.34646 -12.1748,-4.03465 -2.90433,-2.68229 -4.35827,-6.43229 -4.35827,-11.2347 0,-4.59685 1.43386,-8.23465 4.29922,-10.9311 2.86654,-2.69764 6.75827,-4.04174 11.6705,-4.04174 1.63937,0 3.19725,0.132284 4.67008,0.39567 1.47638,0.263386 2.83937,0.657875 4.08662,1.18465zm16.4126 5.57363l-3.71339 10.8189 7.30158 0 -3.58819 -10.8189zm-4.46575 -6.43938l9.22678 0 10.8579 28.8555 -8.17087 0 -2.03977 -6.11339 -11.0445 0 -2.1378 6.11339 -7.56969 0 10.878 -28.8555z"/>
</svg>
